<svg width="96" height="96" viewBox="0 0 96 96" fill="none" xmlns="http://www.w3.org/2000/svg">
<path d="M14 51L31 45L48 51L31 57L14 51Z" fill="white"/>
<path d="M31 45L48 51L31 57L14 51L31 45ZM30.9996 55.9387L44.9953 51L30.9996 46.0613L17.0052 51L30.9996 55.9387Z" fill="black"/>
<path d="M14 51L31 57L31 81L14 75V51Z" fill="white"/>
<path d="M31 57L31 81L14 75V51L31 57ZM15 74.292L30 79.5859V57.707L15 52.4131V74.292Z" fill="black"/>
<path d="M48 51L31 57L31 81L48 75V51Z" fill="white"/>
<path d="M31 57L31 81L48 75V51L31 57ZM47 74.292L32 79.5859V57.707L47 52.4131V74.292Z" fill="black"/>
<path d="M48 51L65 45L82 51L65 57L48 51Z" fill="white"/>
<path d="M65 45L82 51L65 57L48 51L65 45ZM64.9996 55.9387L78.9953 51L64.9996 46.0613L51.0052 51L64.9996 55.9387Z" fill="black"/>
<path d="M48 51L65 57L65 81L48 75V51Z" fill="white"/>
<path d="M65 57L65 81L48 75V51L65 57ZM49 74.292L64 79.5859V57.707L49 52.4131V74.292Z" fill="black"/>
<path d="M82 51L65 57L65 81L82 75V51Z" fill="white"/>
<path d="M65 57L65 81L82 75V51L65 57ZM81 74.292L66 79.5859V57.707L81 52.4131V74.292Z" fill="black"/>
<path d="M31 21L48 15L65 21L48 27L31 21Z" fill="white"/>
<path d="M48 15L65 21L48 27L31 21L48 15ZM47.9996 25.9387L61.9953 21L47.9996 16.0613L34.0052 21L47.9996 25.9387Z" fill="black"/>
<path d="M31 21L48 27L48 51L31 45V21Z" fill="white"/>
<path d="M48 27L48 51L31 45V21L48 27ZM32 44.292L47 49.5859V27.707L32 22.4131V44.292Z" fill="black"/>
<path d="M65 21L48 27L48 51L65 45V21Z" fill="white"/>
<path d="M48 27L48 51L65 45V21L48 27ZM64 44.292L49 49.5859V27.707L64 22.4131V44.292Z" fill="black"/>
</svg>
